HIERARCHY
ROOT Hips
{
    OFFSET 0.000000 0.000000 0.000000
    CHANNELS 6 Xposition Yposition Zposition Zrotation Xrotation Yrotation
    JOINT Chest
    {
        OFFSET -0.000000 0.078598 0.000000
        CHANNELS 3 Zrotation Xrotation Yrotation
        JOINT Chest2
        {
            OFFSET -0.000000 0.230468 0.000000
            CHANNELS 3 Zrotation Xrotation Yrotation
            JOINT Neck
            {
                OFFSET -0.000000 0.249638 0.000000
                CHANNELS 3 Zrotation Xrotation Yrotation
                JOINT Head
                {
                    OFFSET -0.000000 0.103998 0.019170
                    CHANNELS 3 Zrotation Xrotation Yrotation
                    End Site
                    {
                        OFFSET -0.000000 0.191701 0.000000
                    }
                }
            }
            JOINT LeftCollar
            {
                OFFSET 0.038274 0.205938 -0.001496
                CHANNELS 3 Zrotation Xrotation Yrotation
                JOINT LeftShoulder
                {
                    OFFSET 0.132388 0.000000 0.000000
                    CHANNELS 3 Zrotation Xrotation Yrotation
                    JOINT LeftElbow
                    {
                        OFFSET 0.250301 0.000000 0.000000
                        CHANNELS 3 Zrotation Xrotation Yrotation
                        JOINT LeftWrist
                        {
                            OFFSET 0.285291 0.000000 0.000000
                            CHANNELS 3 Zrotation Xrotation Yrotation
                            End Site
                            {
                                OFFSET 0.000000 -0.143776 0.000000
                            }
                        }
                    }
                }
            }
            JOINT RightCollar
            {
                OFFSET -0.038406 0.205938 -0.001496
                CHANNELS 3 Zrotation Xrotation Yrotation
                JOINT RightShoulder
                {
                    OFFSET -0.132388 0.000000 0.000000
                    CHANNELS 3 Zrotation Xrotation Yrotation
                    JOINT RightElbow
                    {
                        OFFSET -0.250301 0.000000 0.000000
                        CHANNELS 3 Zrotation Xrotation Yrotation
                        JOINT RightWrist
                        {
                            OFFSET -0.285291 0.000000 0.000000
                            CHANNELS 3 Zrotation Xrotation Yrotation
                            End Site
                            {
                                OFFSET -0.000000 -0.143776 0.000000
                            }
                        }
                    }
                }
            }
        }
    }
    JOINT LeftHip
    {
        OFFSET 0.095851 0.000000 0.000000
        CHANNELS 3 Zrotation Xrotation Yrotation
        JOINT LeftKnee
        {
            OFFSET -0.000000 -0.406444 0.000000
            CHANNELS 3 Zrotation Xrotation Yrotation
            JOINT LeftAnkle
            {
                OFFSET -0.000000 -0.408443 0.000000
                CHANNELS 3 Zrotation Xrotation Yrotation
                JOINT LeftToe
                {
                    OFFSET -0.000000 -0.062303 0.143776
                    CHANNELS 3 Zrotation Xrotation Yrotation
                    End Site
                    {
                        OFFSET -0.000000 0.000000 0.038340
                    }
                }
            }
        }
    }
    JOINT RightHip
    {
        OFFSET -0.095851 0.000000 0.000000
        CHANNELS 3 Zrotation Xrotation Yrotation
        JOINT RightKnee
        {
            OFFSET -0.000000 -0.406444 0.000000
            CHANNELS 3 Zrotation Xrotation Yrotation
            JOINT RightAnkle
            {
                OFFSET -0.000000 -0.408443 0.000000
                CHANNELS 3 Zrotation Xrotation Yrotation
                JOINT RightToe
                {
                    OFFSET -0.000000 -0.062303 0.143776
                    CHANNELS 3 Zrotation Xrotation Yrotation
                    End Site
                    {
                        OFFSET -0.000000 0.000000 0.038340
                    }
                }
            }
        }
    }
}
MOTION
Frames:    7
Frame Time:    0.016667
0.007148    0.884896    0.377181    -0.977889    3.087285    -175.561356    -0.045961    -1.243327    0.919148    -1.686177    0.831915    0.319018    -0.238408    11.213052    -0.646639    -3.083639    0.944219    -0.300630    13.827013    -2.154932    -0.516225    -9.870580    -1.544734    -8.646433    -2.234324    -5.368991    2.860382    83.483459    -10.531708    4.712197    -12.694336    0.145863    -1.272795    13.177131    1.369270    5.727162    -0.934812    -7.630817    -2.406179    -83.884712    -1.394688    -7.575778    4.222228    9.517707    0.974122    -0.441687    -5.195074    4.681871    -5.352324    -5.349967    13.423767    0.000000    0.000000    0.000000    -6.943141    12.404286    1.767403    -0.155581    -8.402046    -1.562836    4.583067    -4.775885    -16.842680    0.000000    0.000000    0.000000    
0.007169    0.884886    0.377151    -0.978027    3.083238    -175.576401    -0.056887    -1.248696    0.928542    -1.663742    0.831214    0.321973    -0.275660    11.225982    -0.638600    -3.081163    0.934786    -0.301471    13.845606    -2.053097    -0.444433    -9.904903    -1.653009    -8.779505    -2.248023    -5.364703    2.875654    83.588509    -10.459435    4.721064    -12.718127    0.147697    -1.253536    13.178204    1.387535    5.717274    -0.956900    -7.658390    -2.404211    -84.014519    -1.390121    -7.605611    4.217794    9.505935    0.971439    -0.435934    -5.168539    4.694597    -5.358008    -5.366565    13.429736    0.000000    0.000000    0.000000    -6.949455    12.398973    1.778019    -0.148673    -8.394924    -1.583610    4.664573    -4.849909    -16.838804    0.000000    0.000000    0.000000    
0.007194    0.884857    0.377106    -0.967508    3.086737    -175.590057    -0.054601    -1.251402    0.934396    -1.645248    0.838875    0.324014    -0.283512    11.230337    -0.637665    -3.129494    0.934092    -0.295657    13.850294    -2.076417    -0.449428    -9.924577    -1.602715    -8.779184    -2.215822    -5.377167    2.885007    83.576225    -10.493588    4.731094    -12.723984    0.156555    -1.224994    13.156531    1.421557    5.698653    -0.962590    -7.717572    -2.411529    -84.032768    -1.394230    -7.664967    4.222928    9.498730    0.969589    -0.389449    -5.120822    4.653090    -5.403049    -5.408726    13.397526    0.000000    0.000000    0.000000    -6.945102    12.388674    1.772613    -0.136818    -8.368606    -1.556106    4.655557    -4.858291    -16.819971    0.000000    0.000000    0.000000    
0.007207    0.884877    0.377066    -0.968289    3.090656    -175.602417    -0.056247    -1.254929    0.940341    -1.640176    0.852935    0.326143    -0.291447    11.220773    -0.625577    -3.180068    0.945259    -0.277836    13.860765    -2.081327    -0.457158    -9.941975    -1.586904    -8.774258    -2.187345    -5.399471    2.887555    83.139435    -10.807844    4.694826    -12.755025    0.142548    -1.186062    13.178722    1.417411    5.660022    -0.952919    -7.745143    -2.418703    -83.964516    -1.415298    -7.690453    4.220564    9.502018    0.967818    -0.390402    -5.112731    4.675582    -5.398875    -5.406419    13.398498    0.000000    0.000000    0.000000    -6.951568    12.415260    1.774179    -0.132589    -8.333754    -1.547049    4.659787    -4.970223    -16.826178    0.000000    0.000000    0.000000    
0.007233    0.884891    0.376986    -0.956647    3.102573    -175.617447    -0.025320    -1.299063    0.945289    -1.679275    0.933877    0.329057    -0.281079    11.249525    -0.605234    -3.238960    0.895874    -0.247714    13.872840    -2.113156    -0.490876    -9.931972    -1.574709    -8.739803    -2.186744    -5.463612    2.875541    83.507233    -10.565214    4.808003    -12.662883    0.037613    -1.079014    13.095188    1.501484    5.533331    -0.938823    -7.781388    -2.417189    -84.256851    -1.330105    -7.734274    4.237054    9.521735    0.968865    -0.426863    -5.133360    4.750151    -5.356068    -5.401950    13.408029    0.000000    0.000000    0.000000    -6.934937    12.369166    1.788596    -0.134080    -8.308959    -1.536741    4.595057    -4.843549    -16.819965    0.000000    0.000000    0.000000    
0.007259    0.884880    0.376914    -0.951588    3.118046    -175.633560    -0.021865    -1.309175    0.951219    -1.663279    0.966354    0.331487    -0.260538    11.179137    -0.571570    -3.423623    1.002424    -0.179583    13.872177    -2.088047    -0.496958    -9.929615    -1.593871    -8.746999    -2.209669    -5.455934    2.865467    83.474762    -10.603347    4.794749    -12.700454    0.054073    -1.018380    13.121293    1.447950    5.502449    -0.913178    -7.740525    -2.432905    -84.232430    -1.334594    -7.692500    4.244496    9.543044    0.971738    -0.428954    -5.132010    4.758948    -5.335923    -5.413250    13.407480    0.000000    0.000000    0.000000    -6.930867    12.379463    1.777182    -0.126166    -8.302136    -1.548452    4.586836    -4.836456    -16.772846    0.000000    0.000000    0.000000    
0.007307    0.884868    0.376874    -0.944461    3.139078    -175.654800    -0.035310    -1.307662    0.971249    -1.620543    1.004877    0.338416    -0.313227    11.196084    -0.509912    -3.427770    0.955653    -0.129043    13.905212    -2.014104    -0.476253    -9.972185    -1.629734    -8.825775    -2.229566    -5.438391    2.889985    83.411575    -10.597572    4.770670    -12.771689    0.162978    -1.007474    13.135634    1.216064    5.499182    -0.748798    -7.579597    -2.375330    -84.448135    -1.262452    -7.533762    4.253178    9.568076    0.971371    -0.425788    -5.125505    4.782479    -5.340631    -5.412837    13.400056    0.000000    0.000000    0.000000    -6.922301    12.392644    1.784417    -0.126766    -8.294425    -1.559837    4.572373    -4.823675    -16.743618    0.000000    0.000000    0.000000    
